<svg xmlns="http://www.w3.org/2000/svg" viewBox="0 0 100 100">
<defs>
<pattern id="cactus-pattern" x="0" y="0" width="20" height="20"
patternUnits="userSpaceOnUse">
<path
d="M5 10 L15 10 L15 5 L17.5 7.5 L20 5 L22.5 7.5 L25 5 L27.5 7.5 L30 5 L32.5 7.5 L35 5 L37.5 7.5 L40 5 L42.5 7.5 L45 5 L47.5 7.5 L50 5 L52.5 7.5 L55 5 L57.5 7.5 L60 5 L62.5 7.5 L65 5 L67.5 7.5 L70 5 L72.5 7.5 L75 5 L77.5 7.5 L80 5 L82.5 7.5 L85 5 L87.5 7.5 L90 5 L92.5 7.5 L95 5 L97.5 7.5 L97.5 10 L87.5 10 L87.5 12.5 L85 15 L82.5 12.5 L80 15 L77.5 12.5 L75 15 L72.5 12.5 L70 15 L67.5 12.5 L65 15 L62.5 12.5 L60 15 L57.5 12.5 L55 15 L52.5 12.5 L50 15 L47.5 12.5 L45 15 L42.5 12.5 L40 15 L37.5 12.5 L35 15 L32.5 12.5 L30 15 L27.5 12.5 L25 15 L22.5 12.5 L20 15 L17.5 12.5 L15 15 L5 15 Z"
fill="#8BC34A" />
</pattern>
</defs>

<rect x="0" y="0" width="100%" height="100%" fill="url(#cactus-pattern)" />
</svg>